HIERARCHY
ROOT Hips
{
	OFFSET 0.000000 0.000000 0.000000
	CHANNELS 6 Xposition Yposition Zposition Xrotation Yrotation Zrotation
	JOINT LeftUpLeg_virtual
	{
		OFFSET 0.000000 0.000000 0.000000
		CHANNELS 3 Xrotation Yrotation Zrotation
		JOINT LeftUpLeg
		{
			OFFSET 11.394100 -6.187798 -0.413800
			CHANNELS 3 Xrotation Yrotation Zrotation
			JOINT LeftLeg
			{
				OFFSET 0.430247 -32.302673 3.732800
				CHANNELS 3 Xrotation Yrotation Zrotation
				JOINT LeftFoot
				{
					OFFSET -0.430247 -48.264931 -6.423300
					CHANNELS 3 Xrotation Yrotation Zrotation
					JOINT LeftToeBase
					{
						OFFSET 4.230900 -16.068199 23.438400
						CHANNELS 3 Xrotation Yrotation Zrotation
						JOINT LeftToe_End
						{
							OFFSET 4.510700 0.695400 19.974600
							CHANNELS 3 Xrotation Yrotation Zrotation
							End Site
							{
								OFFSET 0 0 0
							}
						}
					}
				}
			}
		}
	}
	JOINT RightUpLeg_virtual
	{
		OFFSET 0.000000 0.000000 0.000000
		CHANNELS 3 Xrotation Yrotation Zrotation
		JOINT RightUpLeg
		{
			OFFSET -11.333700 -6.187798 -0.413800
			CHANNELS 3 Xrotation Yrotation Zrotation
			JOINT RightLeg
			{
				OFFSET -0.430392 -32.302628 3.733000
				CHANNELS 3 Xrotation Yrotation Zrotation
				JOINT RightFoot
				{
					OFFSET 0.430392 -48.264973 -6.423500
					CHANNELS 3 Xrotation Yrotation Zrotation
					JOINT RightToeBase
					{
						OFFSET -4.230900 -16.068199 23.438400
						CHANNELS 3 Xrotation Yrotation Zrotation
						JOINT RightToe_End
						{
							OFFSET -4.510700 0.695400 19.974600
							CHANNELS 3 Xrotation Yrotation Zrotation
							End Site
							{
								OFFSET 0 0 0
							}
						}
					}
				}
			}
		}
	}
	JOINT Spine_virtual
	{
		OFFSET 0.000000 0.000000 0.000000
		CHANNELS 3 Xrotation Yrotation Zrotation
		JOINT Spine
		{
			OFFSET -0.002400 12.777504 0.315300
			CHANNELS 3 Xrotation Yrotation Zrotation
			JOINT Spine1
			{
				OFFSET -0.002067 5.816869 0.032633
				CHANNELS 3 Xrotation Yrotation Zrotation
				JOINT Spine1_split
				{
					OFFSET -0.002067 5.816869 0.032633
					CHANNELS 3 Xrotation Yrotation Zrotation
					JOINT Spine2
					{
						OFFSET -0.002067 5.816869 0.032633
						CHANNELS 3 Xrotation Yrotation Zrotation
						JOINT Neck_virtual
						{
							OFFSET 0.000000 0.000000 0.000000
							CHANNELS 3 Xrotation Yrotation Zrotation
							JOINT Neck
							{
								OFFSET -0.003700 21.199493 -0.826900
								CHANNELS 3 Xrotation Yrotation Zrotation
								JOINT Head
								{
									OFFSET 0.000000 20.442200 4.834800
									CHANNELS 3 Xrotation Yrotation Zrotation
									JOINT HeadTop_End
									{
										OFFSET 0.000000 34.668396 4.968400
										CHANNELS 3 Xrotation Yrotation Zrotation
										End Site
										{
											OFFSET 0 0 0
										}
									}
								}
							}
						}
						JOINT LeftShoulder_virtual
						{
							OFFSET 0.000000 0.000000 0.000000
							CHANNELS 3 Xrotation Yrotation Zrotation
							JOINT LeftShoulder
							{
								OFFSET 3.288150 8.794197 -1.372250
								CHANNELS 3 Xrotation Yrotation Zrotation
								JOINT LeftShoulder_split
								{
									OFFSET 3.288150 8.794197 -1.372250
									CHANNELS 3 Xrotation Yrotation Zrotation
									JOINT LeftArm
									{
										OFFSET 11.953299 -2.279007 -0.146200
										CHANNELS 3 Xrotation Yrotation Zrotation
										JOINT LeftForeArm
										{
											OFFSET 18.448900 0.000000 0.000000
											CHANNELS 3 Xrotation Yrotation Zrotation
											JOINT LeftHand
											{
												OFFSET 29.527798 0.000000 0.000000
												CHANNELS 3 Xrotation Yrotation Zrotation
												End Site
												{
													OFFSET 0 0 0
												}
											}
										}
									}
								}
							}
						}
						JOINT RightShoulder_virtual
						{
							OFFSET 0.000000 0.000000 0.000000
							CHANNELS 3 Xrotation Yrotation Zrotation
							JOINT RightShoulder
							{
								OFFSET -3.249400 8.794197 -1.372250
								CHANNELS 3 Xrotation Yrotation Zrotation
								JOINT RightShoulder_split
								{
									OFFSET -3.249400 8.794197 -1.372250
									CHANNELS 3 Xrotation Yrotation Zrotation
									JOINT RightArm
									{
										OFFSET -11.953299 -2.279007 -0.146200
										CHANNELS 3 Xrotation Yrotation Zrotation
										JOINT RightForeArm
										{
											OFFSET -18.448900 0.000000 0.000000
											CHANNELS 3 Xrotation Yrotation Zrotation
											JOINT RightHand
											{
												OFFSET -29.527802 0.000000 0.000000
												CHANNELS 3 Xrotation Yrotation Zrotation
												End Site
												{
													OFFSET 0 0 0
												}
											}
										}
									}
								}
							}
						}
					}
				}
			}
		}
	}
}
MOTION
Frames: 5
Frame Time: 0.03333333
-2.342083 140.276764 -0.133823 0.000000 0.000000 0.000000 5.531261 -3.076524 5.046304 -46.635931 16.040001 3.863172 38.096323 7.908817 -2.396079 41.309370 9.399717 3.369086 -7.621621 0.301178 2.149930 0.000000 0.000000 0.000000 6.909182 -2.413171 4.689733 -10.991481 4.728619 -10.030637 30.051248 -7.282581 6.764470 30.368814 -10.968243 19.672951 0.020658 2.755349 0.862405 0.000000 0.000000 0.000000 7.281324 -4.369317 5.499287 -8.413596 2.778054 -0.553976 -5.462279 1.449539 0.668607 2.049043 -5.337454 2.510153 0.000000 0.000000 0.000000 -2.251714 0.290277 0.579170 -14.457292 -3.654848 -1.299829 -3.706699 1.441274 1.645639 0.000000 0.000000 0.000000 -6.981967 0.691464 0.453787 14.086224 1.907084 29.851007 11.683252 10.403893 -0.466339 -54.046034 -40.396191 4.449122 -41.571550 -23.393352 1.786190 0.000000 0.000000 0.000000 -7.384034 0.523971 1.444876 3.172784 -9.485723 -33.098970 -0.724425 4.321601 0.998951 -72.277144 33.908385 12.327142 -25.954323 28.230092 1.590373 0.000000 0.000000 0.000000 
-1.212441 140.984848 -1.690334 0.000000 0.000000 0.000000 5.326981 -4.551273 5.022756 -44.819599 13.113292 2.252505 40.231098 7.017610 -2.217990 38.922540 9.030194 2.854238 -6.794869 0.066412 2.188838 0.000000 0.000000 0.000000 6.943218 -3.919638 4.673072 -12.317452 2.237125 -10.232198 32.394604 -6.297180 6.894315 32.307488 -9.657894 19.604062 3.538015 2.965834 0.279490 0.000000 0.000000 0.000000 7.459403 -5.805698 5.410749 -8.618133 2.631950 -0.344394 -5.542167 1.657801 1.164220 1.377099 -3.314780 1.712363 0.000000 0.000000 0.000000 -1.480757 0.582539 0.753186 -14.703422 -3.843719 -0.313365 -4.758489 0.993656 1.518386 0.000000 0.000000 0.000000 -6.678786 0.882869 0.902112 14.178916 1.937427 30.403026 11.030582 8.575503 -0.377530 -56.026389 -42.010448 1.864615 -40.049900 -23.675474 3.559357 0.000000 0.000000 0.000000 -6.726653 0.682760 1.584054 3.287065 -9.464081 -33.202936 -1.116613 4.216237 0.941204 -72.167895 33.081724 11.681145 -26.003673 28.680996 1.533639 0.000000 0.000000 0.000000 
0.411693 142.122009 -4.041939 0.000000 0.000000 0.000000 4.550868 -7.573920 4.641385 -44.118060 9.622872 0.224198 45.305669 3.600976 -1.766775 34.025127 6.479608 1.276195 -6.125898 -0.261283 1.852067 0.000000 0.000000 0.000000 6.759199 -7.364754 4.497744 -12.956425 -0.667253 -10.688085 32.884513 -5.603060 6.741928 34.906358 -7.481668 19.017091 2.784409 3.100319 -0.078049 0.000000 0.000000 0.000000 7.406016 -9.340473 5.099693 -7.965164 2.875443 0.147690 -5.508761 2.676312 1.710780 1.366756 -1.401782 0.332251 0.000000 0.000000 0.000000 -0.806353 1.792157 0.922692 -15.043937 -3.496038 0.309591 -7.275970 1.320477 1.405223 0.000000 0.000000 0.000000 -6.504447 1.978353 1.254850 14.699313 2.604756 30.632330 9.898458 6.492034 -0.529564 -61.787510 -42.721816 -3.291224 -37.348547 -26.744000 6.968211 0.000000 0.000000 0.000000 -6.112469 1.755161 1.851181 4.046560 -9.019033 -33.287453 -1.504352 3.887956 0.657018 -72.561170 31.180917 11.349531 -26.362584 29.545127 1.438134 0.000000 0.000000 0.000000 
1.971305 143.521515 -6.295364 0.000000 0.000000 0.000000 3.543726 -11.788367 3.902849 -44.652515 6.574982 -1.673443 50.908286 -0.595876 -1.181345 27.386688 3.262761 -0.713016 -6.047399 -0.696380 1.477008 0.000000 0.000000 0.000000 6.464550 -12.625295 4.100553 -12.293461 -3.679483 -11.275059 31.580315 -5.541771 6.251491 36.280479 -6.199011 16.713691 -0.066328 3.187182 0.129315 0.000000 0.000000 0.000000 6.908294 -15.131678 4.399183 -6.402831 3.535986 0.825950 -5.303043 4.382704 2.269162 1.910055 0.331234 -0.639862 0.000000 0.000000 0.000000 -0.373137 3.769312 1.099276 -15.421362 -2.843747 0.592598 -10.679690 2.414786 1.454915 0.000000 0.000000 0.000000 -6.295650 3.827918 1.455694 15.521786 4.093320 30.578989 7.914297 4.742126 -0.578742 -68.413634 -41.503610 -8.145375 -33.760662 -30.219154 12.153242 0.000000 0.000000 0.000000 -5.511492 3.701796 2.236418 5.253011 -8.266156 -33.480880 -2.019317 3.446676 0.156927 -73.377781 29.271875 11.402086 -26.801606 30.444954 1.169779 0.000000 0.000000 0.000000 
3.079674 144.938812 -8.275169 0.000000 0.000000 0.000000 2.718029 -17.309916 2.899994 -45.207410 4.674338 -3.161546 54.076653 -3.349575 -0.926259 19.643832 1.801867 -1.321586 -6.395402 -1.162668 1.089294 0.000000 0.000000 0.000000 6.400686 -19.647809 3.561116 -10.529255 -6.370033 -12.112439 29.247690 -5.881974 5.477433 36.107030 -6.335461 12.483013 -1.197754 3.098668 1.029243 0.000000 0.000000 0.000000 6.104268 -22.587639 3.368749 -4.199628 4.584283 1.566086 -4.885058 6.573710 2.827030 2.563719 1.122751 -0.574549 0.000000 0.000000 0.000000 -0.163324 6.239206 1.321528 -15.579313 -2.160845 0.768928 -13.910778 4.112197 1.774120 0.000000 0.000000 0.000000 -5.822410 6.173677 1.521741 16.506464 6.404498 30.238935 5.645705 3.348882 -0.789840 -72.869478 -39.368920 -10.239354 -30.663728 -32.479346 17.974848 0.000000 0.000000 0.000000 -4.948287 6.320908 2.728464 6.648984 -7.270076 -33.902682 -2.542888 2.961132 -0.671890 -74.436583 28.383845 11.773632 -27.221009 31.303860 0.678905 0.000000 0.000000 0.000000 
